<?xml version="1.0" encoding="utf-8"?>
<!-- Generator: Adobe Illustrator 24.0.0, SVG Export Plug-In . SVG Version: 6.00 Build 0)  -->
<svg version="1.1" id="Layer_1" xmlns="http://www.w3.org/2000/svg" xmlns:xlink="http://www.w3.org/1999/xlink" x="0px" y="0px"
	 viewBox="0 0 646.3 645.6" style="enable-background:new 0 0 646.3 645.6;" xml:space="preserve">
<style type="text/css">
	.st0{fill:#009090;}
	.st1{fill:#FFFFFF;}
	.st2{fill:none;stroke:#FFFFFF;stroke-width:5.6693;stroke-miterlimit:10;}
</style>
<g>
	<path class="st0" d="M323.1,645.6c178.5,0,323.1-144.5,323.1-322.8S501.6,0,323.1,0S0,144.5,0,322.8S144.7,645.6,323.1,645.6z"/>
	<path class="st1" d="M411,494.1c-18.5,11.7-40.3,17.6-62.4,17.6c-18.5,0-37.1-4.2-53.8-12.6c-29.9-14.8-46-39.3-61.6-62.9
		c-13.3-20.1-28.9-39.5-44-58.3c-9.4-15.4-38.6-37-31.9-55.6c3.2-7.4,11.2-11.3,23.6-11.8c13.6-0.5,26.8,2.1,39,7.6
		c18.2,8.3,27.5,13.5,37.1,21.8V177.6c0-17.6,14.1-31.8,31.5-31.8h3.8c17.4,0,31.5,14.2,31.5,31.8v61.6c3.3-1.3,7.2-2,11-2
		c14.9,0,27.1,9.1,31.9,21.9c3.9-1.7,8.3-2.8,12.9-2.8c4.6,0,8.8,0.9,12.6,2.4c0,0,8.7,3.8,15,12c0.9,1.2,1.8,2.5,2.5,3.9
		c0.5,0.7,0.9,1.4,1.3,2.2c4-2,8.7-3,13.5-3c19.1,0,33.8,14.9,33.8,33.3c0,8.9,0.3,18.5,0.7,28.4C461,391.4,463.5,460.8,411,494.1z"
		/>
	<path class="st2" d="M339.7,234.4h-99.4c-2.8,0-5-2.2-5-5v-99.4c0-2.8,2.2-5,5-5h99.4c2.8,0,5,2.2,5,5v99.4
		C344.7,232.2,342.5,234.4,339.7,234.4z"/>
</g>
</svg>
