<?xml version="1.0" encoding="utf-8"?>
<!-- Generator: Adobe Illustrator 24.0.0, SVG Export Plug-In . SVG Version: 6.00 Build 0)  -->
<svg version="1.1" id="Layer_1" xmlns="http://www.w3.org/2000/svg" xmlns:xlink="http://www.w3.org/1999/xlink" x="0px" y="0px"
	 viewBox="0 0 1377.5 363.3" style="enable-background:new 0 0 1377.5 363.3;" xml:space="preserve">
<style type="text/css">
	.st0{fill:#009393;}
	.st1{fill:#B0C5E0;}
	.st2{fill:#CC0000;}
	.st3{fill:#009090;}
	.st4{fill:#FFFFFF;}
	.st5{fill:none;stroke:#FFFFFF;stroke-width:5.6693;stroke-miterlimit:10;}
</style>
<g>
	<path class="st0" d="M452.5,246.4V142.1h-41.1v-24.2h112v24.2h-41.1v104.2L452.5,246.4L452.5,246.4z"/>
	<path class="st0" d="M539.4,246.4V117.9h29.9v128.4H539.4z"/>
	<path class="st0" d="M717.5,117.9v128.4h-24.6L629,168.5v77.9h-29.4V117.9h24.6l63.9,77.9v-77.9H717.5L717.5,117.9z"/>
	<path class="st0" d="M834.9,180.1h27.2v52.1c-7.1,5.4-15.2,9.5-24.4,12.2c-9.2,2.8-18.4,4.1-27.5,4.1c-10.2,0-19.5-1.6-28.1-4.9
		c-8.6-3.2-16-7.8-22.2-13.8c-6.2-6-11.1-13-14.6-21.1c-3.5-8.1-5.2-16.9-5.2-26.6c0-9.7,1.7-18.5,5.2-26.6
		c3.5-8.1,8.4-15.1,14.8-21.1c6.4-6,13.8-10.6,22.4-13.9c8.6-3.2,18-4.9,28.3-4.9c11.4,0,21.6,1.9,30.8,5.7
		c9.1,3.8,16.8,9.3,23,16.5l-18.9,17.6c-4.8-5-9.9-8.7-15.4-11.1c-5.5-2.4-11.6-3.6-18.2-3.6c-6.1,0-11.8,1-16.9,3
		c-5.1,2-9.6,4.9-13.3,8.5c-3.7,3.7-6.6,8-8.6,13c-2,5-3,10.6-3,16.7s1,11.3,3,16.4c2,5.1,4.9,9.5,8.6,13.1
		c3.7,3.7,8.1,6.6,13.2,8.6c5.1,2.1,10.7,3.1,16.8,3.1s11.6-1,17.2-2.9c2-0.7,4-1.6,6-2.6V180.1L834.9,180.1z"/>
	<path class="st1" d="M985.8,116.6h33.4l-46,129.8h-39.6l-46-129.8h33.6l32.2,98L985.8,116.6z"/>
	<path class="st1" d="M1097.5,247.7c-36.8,0-66.7-27.5-66.7-66.5s29.9-66.4,66.7-66.4s66.4,27.4,66.4,66.4
		S1134.2,247.7,1097.5,247.7z M1097.5,218.8c20.7,0,34.2-15,34.2-37.7s-13.5-37.7-34.2-37.7s-34.4,14.6-34.4,37.7
		S1076.4,218.8,1097.5,218.8z"/>
	<path class="st1" d="M1178.1,116.6h100.4V142H1244v104.4h-31.6V141.9H1178L1178.1,116.6L1178.1,116.6z"/>
	<path class="st1" d="M1377.5,141.9h-47.9v26.2h42.3v24.4h-42.3V221h47.9v25.3H1298V116.6h79.5V141.9L1377.5,141.9z"/>
	<path class="st2" d="M985.8,116.6h33.4l-46,129.8h-39.6l-46-129.8h33.6l32.2,98L985.8,116.6z"/>
	<path class="st2" d="M1097.5,247.7c-36.8,0-66.7-27.5-66.7-66.5s29.9-66.4,66.7-66.4s66.4,27.4,66.4,66.4
		S1134.2,247.7,1097.5,247.7z M1097.5,218.8c20.7,0,34.2-15,34.2-37.7s-13.5-37.7-34.2-37.7s-34.4,14.6-34.4,37.7
		S1076.4,218.8,1097.5,218.8z"/>
	<path class="st2" d="M1178.1,116.6h100.4V142H1244v104.4h-31.6V141.9H1178L1178.1,116.6L1178.1,116.6z"/>
	<path class="st2" d="M1377.5,141.9h-47.9v26.2h42.3v24.4h-42.3V221h47.9v25.3H1298V116.6h79.5V141.9L1377.5,141.9z"/>
</g>
<g>
	<path class="st3" d="M181.9,363.3c100.4,0,181.9-81.3,181.9-181.7S282.3,0,181.9,0S0,81.3,0,181.7S81.4,363.3,181.9,363.3z"/>
	<path class="st4" d="M231.3,278c-10.4,6.6-22.7,9.9-35.1,9.9c-10.4,0-20.9-2.3-30.3-7.1c-16.8-8.3-25.9-22.1-34.6-35.4
		c-7.5-11.3-16.2-22.2-24.8-32.8c-5.3-8.6-21.7-20.8-17.9-31.3c1.8-4.2,6.3-6.4,13.3-6.6c7.7-0.3,15.1,1.2,22,4.3
		c10.3,4.7,15.5,7.6,20.9,12.3V99.9c0-9.9,7.9-17.9,17.7-17.9h2.1c9.8,0,17.7,8,17.7,17.9v34.6c1.9-0.7,4-1.1,6.2-1.1
		c8.4,0,15.3,5.1,17.9,12.3c2.2-1,4.7-1.6,7.3-1.6s4.9,0.5,7.1,1.4c0,0,4.9,2.1,8.4,6.8c0.5,0.6,1,1.4,1.4,2.2
		c0.3,0.4,0.5,0.8,0.7,1.2c2.3-1.1,4.9-1.7,7.6-1.7c10.7,0,19,8.4,19,18.7c0,5,0.2,10.4,0.4,16C259.4,220.3,260.8,259.3,231.3,278z"
		/>
	<path class="st5" d="M189,131.9h-51.6c-2.8,0-5-2.2-5-5V75.4c0-2.8,2.2-5,5-5H189c2.8,0,5,2.2,5,5v51.6
		C194,129.7,191.7,131.9,189,131.9z"/>
</g>
</svg>
